G04*
G04 #@! TF.GenerationSoftware,Altium Limited,Altium Designer,23.11.1 (41)*
G04*
G04 Layer_Color=32896*
%FSLAX25Y25*%
%MOIN*%
G70*
G04*
G04 #@! TF.SameCoordinates,84374296-2AA4-43A0-BDA8-580E4E68A88C*
G04*
G04*
G04 #@! TF.FilePolarity,Positive*
G04*
G01*
G75*
%ADD10C,0.00600*%
%ADD42C,0.00984*%
%ADD43C,0.00787*%
%ADD44C,0.00598*%
D10*
X113974Y65940D02*
X114640Y66607D01*
X115973D01*
X116640Y65940D01*
Y65274D01*
X115973Y64607D01*
X114640D01*
X113974Y63941D01*
Y63274D01*
X114640Y62608D01*
X115973D01*
X116640Y63274D01*
X112641Y66607D02*
Y62608D01*
Y64607D01*
X109975D01*
Y66607D01*
Y62608D01*
X108642Y66607D02*
Y62608D01*
X105977D01*
X104644Y66607D02*
Y62608D01*
X102644D01*
X101978Y63274D01*
Y65940D01*
X102644Y66607D01*
X104644D01*
X151959Y29528D02*
X149293D01*
X150626Y30860D02*
Y28195D01*
X145295Y31527D02*
X147960D01*
Y29528D01*
X146627Y30194D01*
X145961D01*
X145295Y29528D01*
Y28195D01*
X145961Y27528D01*
X147294D01*
X147960Y28195D01*
X152943Y43338D02*
Y39339D01*
X150944D01*
X150277Y40006D01*
Y42671D01*
X150944Y43338D01*
X152943D01*
X148945Y41339D02*
X146279D01*
X152943Y51212D02*
Y47213D01*
X150944D01*
X150277Y47880D01*
Y50546D01*
X150944Y51212D01*
X152943D01*
X148945Y49213D02*
X146279D01*
X147612Y50546D02*
Y47880D01*
X149293Y62357D02*
X149960Y63023D01*
X151293D01*
X151959Y62357D01*
Y59691D01*
X151293Y59024D01*
X149960D01*
X149293Y59691D01*
Y61024D01*
X150626D01*
X147960Y59024D02*
Y63023D01*
X145295Y59024D01*
Y63023D01*
X143962D02*
Y59024D01*
X141962D01*
X141296Y59691D01*
Y62357D01*
X141962Y63023D01*
X143962D01*
X84556Y30481D02*
Y34480D01*
X82556D01*
X81890Y33813D01*
Y32480D01*
X82556Y31814D01*
X84556D01*
X83223D02*
X81890Y30481D01*
X80557D02*
X79224D01*
X79890D01*
Y34480D01*
X80557Y33813D01*
X101727Y8192D02*
X102393Y7525D01*
Y6193D01*
X101727Y5526D01*
X99061D01*
X98394Y6193D01*
Y7525D01*
X99061Y8192D01*
X98394Y12190D02*
Y9525D01*
X101060Y12190D01*
X101727D01*
X102393Y11524D01*
Y10191D01*
X101727Y9525D01*
X63175Y28512D02*
Y32511D01*
X61175D01*
X60509Y31845D01*
Y30512D01*
X61175Y29845D01*
X63175D01*
X61842D02*
X60509Y28512D01*
X56510D02*
X59176D01*
X56510Y31178D01*
Y31845D01*
X57177Y32511D01*
X58510D01*
X59176Y31845D01*
X80073Y8858D02*
X80739Y8192D01*
Y6859D01*
X80073Y6193D01*
X77407D01*
X76741Y6859D01*
Y8192D01*
X77407Y8858D01*
X76741Y10191D02*
Y11524D01*
Y10858D01*
X80739D01*
X80073Y10191D01*
X110585Y8192D02*
X111251Y7525D01*
Y6193D01*
X110585Y5526D01*
X107919D01*
X107253Y6193D01*
Y7525D01*
X107919Y8192D01*
X110585Y9525D02*
X111251Y10191D01*
Y11524D01*
X110585Y12190D01*
X109918D01*
X109252Y11524D01*
Y10858D01*
Y11524D01*
X108586Y12190D01*
X107919D01*
X107253Y11524D01*
Y10191D01*
X107919Y9525D01*
X135227Y47213D02*
Y51212D01*
X133227D01*
X132561Y50546D01*
Y49213D01*
X133227Y48546D01*
X135227D01*
X133894D02*
X132561Y47213D01*
X129229D02*
Y51212D01*
X131228Y49213D01*
X128562D01*
X135227Y39339D02*
Y43338D01*
X133227D01*
X132561Y42671D01*
Y41339D01*
X133227Y40672D01*
X135227D01*
X133894D02*
X132561Y39339D01*
X131228Y42671D02*
X130562Y43338D01*
X129229D01*
X128562Y42671D01*
Y42005D01*
X129229Y41339D01*
X129895D01*
X129229D01*
X128562Y40672D01*
Y40006D01*
X129229Y39339D01*
X130562D01*
X131228Y40006D01*
X92051Y13584D02*
X94717D01*
Y11585D01*
X93384D01*
X94717D01*
Y9585D01*
X90718Y13584D02*
Y9585D01*
X88718D01*
X88052Y10252D01*
Y10918D01*
X88718Y11585D01*
X90718D01*
X88718D01*
X88052Y12251D01*
Y12918D01*
X88718Y13584D01*
X90718D01*
X86719Y9585D02*
X85386D01*
X86053D01*
Y13584D01*
X86719Y12918D01*
D42*
X103445Y31457D02*
X102707Y31883D01*
Y31030D01*
X103445Y31457D01*
X58504Y39705D02*
X57766Y40131D01*
Y39279D01*
X58504Y39705D01*
D43*
X92913Y25197D02*
X98032D01*
X92913Y33858D02*
X98032D01*
X103580Y13889D02*
Y19686D01*
X98176Y13889D02*
Y19686D01*
X81926Y13889D02*
Y19686D01*
X76523Y13889D02*
Y19686D01*
X111454Y13889D02*
Y19686D01*
X106051Y13889D02*
Y19686D01*
X85212Y15013D02*
X94890D01*
X85212Y21936D02*
X94890D01*
X51713Y52008D02*
Y57835D01*
X90020Y52008D02*
Y57835D01*
D44*
X98138Y39401D02*
Y35402D01*
X96139D01*
X95472Y36069D01*
Y38734D01*
X96139Y39401D01*
X98138D01*
X94139Y35402D02*
X92807D01*
X93473D01*
Y39401D01*
X94139Y38734D01*
X47244Y46291D02*
X48577D01*
X47910D01*
Y42958D01*
X48577Y42292D01*
X49243D01*
X49910Y42958D01*
X45911Y42292D02*
X44578D01*
X45245D01*
Y46291D01*
X45911Y45624D01*
M02*
