G04*
G04 #@! TF.GenerationSoftware,Altium Limited,Altium Designer,23.11.1 (41)*
G04*
G04 Layer_Color=8388736*
%FSLAX25Y25*%
%MOIN*%
G70*
G04*
G04 #@! TF.SameCoordinates,84374296-2AA4-43A0-BDA8-580E4E68A88C*
G04*
G04*
G04 #@! TF.FilePolarity,Negative*
G04*
G01*
G75*
%ADD11C,0.05118*%
G04:AMPARAMS|DCode=12|XSize=80.06mil|YSize=99.75mil|CornerRadius=11.48mil|HoleSize=0mil|Usage=FLASHONLY|Rotation=270.000|XOffset=0mil|YOffset=0mil|HoleType=Round|Shape=RoundedRectangle|*
%AMROUNDEDRECTD12*
21,1,0.08006,0.07678,0,0,270.0*
21,1,0.05709,0.09975,0,0,270.0*
1,1,0.02297,-0.03839,-0.02855*
1,1,0.02297,-0.03839,0.02855*
1,1,0.02297,0.03839,0.02855*
1,1,0.02297,0.03839,-0.02855*
%
%ADD12ROUNDEDRECTD12*%
G04:AMPARAMS|DCode=13|XSize=80.06mil|YSize=99.75mil|CornerRadius=11.48mil|HoleSize=0mil|Usage=FLASHONLY|Rotation=180.000|XOffset=0mil|YOffset=0mil|HoleType=Round|Shape=RoundedRectangle|*
%AMROUNDEDRECTD13*
21,1,0.08006,0.07678,0,0,180.0*
21,1,0.05709,0.09975,0,0,180.0*
1,1,0.02297,-0.02855,0.03839*
1,1,0.02297,0.02855,0.03839*
1,1,0.02297,0.02855,-0.03839*
1,1,0.02297,-0.02855,-0.03839*
%
%ADD13ROUNDEDRECTD13*%
G04:AMPARAMS|DCode=14|XSize=61.64mil|YSize=81.32mil|CornerRadius=9.18mil|HoleSize=0mil|Usage=FLASHONLY|Rotation=270.000|XOffset=0mil|YOffset=0mil|HoleType=Round|Shape=RoundedRectangle|*
%AMROUNDEDRECTD14*
21,1,0.06164,0.06296,0,0,270.0*
21,1,0.04328,0.08132,0,0,270.0*
1,1,0.01836,-0.03148,-0.02164*
1,1,0.01836,-0.03148,0.02164*
1,1,0.01836,0.03148,0.02164*
1,1,0.01836,0.03148,-0.02164*
%
%ADD14ROUNDEDRECTD14*%
G04:AMPARAMS|DCode=15|XSize=43.31mil|YSize=74.8mil|CornerRadius=21.65mil|HoleSize=0mil|Usage=FLASHONLY|Rotation=0.000|XOffset=0mil|YOffset=0mil|HoleType=Round|Shape=RoundedRectangle|*
%AMROUNDEDRECTD15*
21,1,0.04331,0.03150,0,0,0.0*
21,1,0.00000,0.07480,0,0,0.0*
1,1,0.04331,0.00000,-0.01575*
1,1,0.04331,0.00000,-0.01575*
1,1,0.04331,0.00000,0.01575*
1,1,0.04331,0.00000,0.01575*
%
%ADD15ROUNDEDRECTD15*%
G04:AMPARAMS|DCode=16|XSize=43.31mil|YSize=86.61mil|CornerRadius=21.65mil|HoleSize=0mil|Usage=FLASHONLY|Rotation=0.000|XOffset=0mil|YOffset=0mil|HoleType=Round|Shape=RoundedRectangle|*
%AMROUNDEDRECTD16*
21,1,0.04331,0.04331,0,0,0.0*
21,1,0.00000,0.08661,0,0,0.0*
1,1,0.04331,0.00000,-0.02165*
1,1,0.04331,0.00000,-0.02165*
1,1,0.04331,0.00000,0.02165*
1,1,0.04331,0.00000,0.02165*
%
%ADD16ROUNDEDRECTD16*%
%ADD17C,0.02953*%
G36*
X31858Y19824D02*
X31871D01*
X31884Y19822D01*
X31896Y19821D01*
X31909Y19819D01*
X31922Y19817D01*
X32607Y19681D01*
X32619Y19678D01*
X32632Y19675D01*
X32644Y19671D01*
X32656Y19668D01*
X32668Y19663D01*
X32681Y19659D01*
X33325Y19391D01*
X33337Y19386D01*
X33349Y19381D01*
X33360Y19374D01*
X33372Y19369D01*
X33382Y19362D01*
X33394Y19355D01*
X33974Y18967D01*
X33984Y18959D01*
X33995Y18952D01*
X34005Y18944D01*
X34015Y18936D01*
X34024Y18927D01*
X34034Y18918D01*
X34527Y18425D01*
X34536Y18415D01*
X34545Y18406D01*
X34553Y18396D01*
X34561Y18386D01*
X34569Y18375D01*
X34576Y18365D01*
X34964Y17785D01*
X34971Y17773D01*
X34978Y17763D01*
X34984Y17751D01*
X34990Y17740D01*
X34995Y17728D01*
X35001Y17716D01*
X35268Y17071D01*
X35272Y17059D01*
X35277Y17047D01*
X35280Y17035D01*
X35284Y17023D01*
X35287Y17010D01*
X35290Y16997D01*
X35426Y16313D01*
X35428Y16300D01*
X35430Y16287D01*
X35431Y16274D01*
X35433Y16262D01*
Y16249D01*
X35434Y16236D01*
Y15887D01*
Y15538D01*
X35433Y15525D01*
Y15512D01*
X35431Y15499D01*
X35430Y15486D01*
X35428Y15474D01*
X35426Y15461D01*
X35290Y14776D01*
X35287Y14764D01*
X35284Y14751D01*
X35280Y14739D01*
X35277Y14727D01*
X35272Y14715D01*
X35268Y14702D01*
X35001Y14058D01*
X34995Y14046D01*
X34990Y14034D01*
X34984Y14023D01*
X34978Y14011D01*
X34971Y14001D01*
X34964Y13989D01*
X34576Y13409D01*
X34569Y13399D01*
X34561Y13388D01*
X34553Y13378D01*
X34545Y13368D01*
X34536Y13359D01*
X34527Y13349D01*
X34034Y12856D01*
X34024Y12847D01*
X34015Y12838D01*
X34005Y12830D01*
X33995Y12822D01*
X33984Y12814D01*
X33974Y12807D01*
X33394Y12419D01*
X33382Y12412D01*
X33372Y12405D01*
X33360Y12399D01*
X33349Y12393D01*
X33337Y12388D01*
X33325Y12382D01*
X32681Y12115D01*
X32668Y12111D01*
X32656Y12106D01*
X32644Y12103D01*
X32632Y12099D01*
X32619Y12096D01*
X32607Y12093D01*
X31922Y11957D01*
X31909Y11955D01*
X31896Y11952D01*
X31884Y11952D01*
X31871Y11950D01*
X31858D01*
X31845Y11949D01*
X31147D01*
X31134Y11950D01*
X31121D01*
X31108Y11952D01*
X31096Y11952D01*
X31083Y11955D01*
X31070Y11957D01*
X30386Y12093D01*
X30373Y12096D01*
X30360Y12099D01*
X30348Y12103D01*
X30336Y12106D01*
X30324Y12111D01*
X30312Y12115D01*
X29667Y12382D01*
X29655Y12388D01*
X29643Y12393D01*
X29632Y12399D01*
X29620Y12405D01*
X29610Y12412D01*
X29599Y12419D01*
X29018Y12807D01*
X29008Y12814D01*
X28997Y12822D01*
X28988Y12830D01*
X28977Y12838D01*
X28968Y12847D01*
X28958Y12856D01*
X28465Y13349D01*
X28456Y13359D01*
X28447Y13368D01*
X28439Y13378D01*
X28431Y13388D01*
X28424Y13399D01*
X28416Y13409D01*
X28028Y13989D01*
X28021Y14001D01*
X28014Y14011D01*
X28009Y14023D01*
X28002Y14034D01*
X27997Y14046D01*
X27992Y14058D01*
X27724Y14702D01*
X27720Y14715D01*
X27715Y14727D01*
X27712Y14739D01*
X27708Y14751D01*
X27705Y14764D01*
X27702Y14776D01*
X27566Y15461D01*
X27564Y15474D01*
X27562Y15486D01*
X27561Y15499D01*
X27559Y15512D01*
Y15525D01*
X27558Y15538D01*
Y15887D01*
Y16236D01*
X27559Y16249D01*
Y16262D01*
X27561Y16274D01*
X27562Y16287D01*
X27564Y16300D01*
X27566Y16313D01*
X27702Y16997D01*
X27705Y17010D01*
X27708Y17023D01*
X27712Y17035D01*
X27715Y17047D01*
X27720Y17059D01*
X27724Y17071D01*
X27992Y17716D01*
X27997Y17728D01*
X28002Y17740D01*
X28009Y17751D01*
X28014Y17763D01*
X28021Y17773D01*
X28028Y17785D01*
X28416Y18365D01*
X28424Y18375D01*
X28431Y18386D01*
X28439Y18395D01*
X28447Y18406D01*
X28456Y18415D01*
X28465Y18425D01*
X28958Y18918D01*
X28968Y18927D01*
X28977Y18936D01*
X28987Y18944D01*
X28997Y18952D01*
X29008Y18959D01*
X29018Y18967D01*
X29599Y19355D01*
X29610Y19361D01*
X29620Y19369D01*
X29632Y19374D01*
X29643Y19381D01*
X29655Y19386D01*
X29667Y19391D01*
X30312Y19659D01*
X30324Y19663D01*
X30336Y19668D01*
X30348Y19671D01*
X30360Y19675D01*
X30373Y19678D01*
X30386Y19681D01*
X31070Y19817D01*
X31083Y19819D01*
X31096Y19821D01*
X31108Y19822D01*
X31121Y19824D01*
X31134D01*
X31147Y19825D01*
X31845D01*
X31858Y19824D01*
D02*
G37*
G36*
X32226Y57029D02*
X32239D01*
X32252Y57027D01*
X32265Y57026D01*
X32278Y57024D01*
X32290Y57022D01*
X33698Y56742D01*
X33710Y56739D01*
X33723Y56736D01*
X33735Y56732D01*
X33747Y56729D01*
X33759Y56724D01*
X33772Y56720D01*
X35097Y56170D01*
X35109Y56165D01*
X35121Y56160D01*
X35132Y56153D01*
X35143Y56148D01*
X35154Y56141D01*
X35165Y56134D01*
X36358Y55337D01*
X36368Y55329D01*
X36379Y55322D01*
X36389Y55313D01*
X36399Y55305D01*
X36408Y55296D01*
X36418Y55288D01*
X37433Y54273D01*
X37441Y54264D01*
X37450Y54255D01*
X37458Y54244D01*
X37466Y54235D01*
X37474Y54224D01*
X37481Y54214D01*
X38279Y53021D01*
X38285Y53009D01*
X38292Y52999D01*
X38298Y52987D01*
X38304Y52976D01*
X38309Y52964D01*
X38315Y52952D01*
X38864Y51627D01*
X38868Y51615D01*
X38873Y51603D01*
X38877Y51590D01*
X38881Y51578D01*
X38883Y51565D01*
X38887Y51553D01*
X39167Y50146D01*
X39168Y50133D01*
X39171Y50120D01*
X39171Y50107D01*
X39173Y50095D01*
Y50082D01*
X39174Y50069D01*
Y49352D01*
Y48634D01*
X39173Y48621D01*
Y48608D01*
X39171Y48595D01*
X39171Y48583D01*
X39168Y48570D01*
X39167Y48557D01*
X38887Y47150D01*
X38883Y47137D01*
X38881Y47125D01*
X38877Y47113D01*
X38873Y47100D01*
X38868Y47088D01*
X38864Y47076D01*
X38315Y45750D01*
X38309Y45739D01*
X38304Y45727D01*
X38298Y45716D01*
X38292Y45704D01*
X38285Y45693D01*
X38279Y45682D01*
X37481Y44489D01*
X37474Y44479D01*
X37466Y44468D01*
X37458Y44459D01*
X37450Y44448D01*
X37441Y44439D01*
X37433Y44430D01*
X36418Y43415D01*
X36408Y43407D01*
X36399Y43397D01*
X36389Y43389D01*
X36379Y43381D01*
X36368Y43374D01*
X36358Y43366D01*
X35165Y42569D01*
X35154Y42562D01*
X35143Y42555D01*
X35132Y42549D01*
X35121Y42543D01*
X35109Y42538D01*
X35097Y42533D01*
X33772Y41983D01*
X33759Y41979D01*
X33747Y41974D01*
X33735Y41971D01*
X33723Y41967D01*
X33710Y41964D01*
X33698Y41961D01*
X32290Y41681D01*
X32278Y41679D01*
X32265Y41677D01*
X32252Y41676D01*
X32239Y41674D01*
X32226D01*
X32213Y41673D01*
X30779D01*
X30766Y41674D01*
X30753D01*
X30740Y41676D01*
X30727Y41677D01*
X30715Y41679D01*
X30702Y41681D01*
X29295Y41961D01*
X29282Y41964D01*
X29269Y41967D01*
X29257Y41971D01*
X29245Y41974D01*
X29233Y41979D01*
X29221Y41983D01*
X27895Y42533D01*
X27883Y42538D01*
X27872Y42543D01*
X27860Y42550D01*
X27849Y42555D01*
X27838Y42562D01*
X27827Y42569D01*
X26634Y43366D01*
X26624Y43374D01*
X26613Y43381D01*
X26603Y43389D01*
X26593Y43397D01*
X26584Y43407D01*
X26574Y43415D01*
X25560Y44430D01*
X25551Y44439D01*
X25542Y44448D01*
X25534Y44459D01*
X25526Y44468D01*
X25518Y44479D01*
X25511Y44489D01*
X24713Y45682D01*
X24707Y45693D01*
X24700Y45704D01*
X24694Y45716D01*
X24688Y45727D01*
X24683Y45739D01*
X24677Y45750D01*
X24128Y47076D01*
X24124Y47088D01*
X24119Y47100D01*
X24115Y47113D01*
X24111Y47125D01*
X24109Y47137D01*
X24105Y47150D01*
X23826Y48557D01*
X23824Y48570D01*
X23821Y48583D01*
X23821Y48595D01*
X23819Y48608D01*
Y48621D01*
X23818Y48634D01*
Y49352D01*
Y50069D01*
X23819Y50082D01*
Y50095D01*
X23821Y50107D01*
X23821Y50120D01*
X23824Y50133D01*
X23826Y50146D01*
X24105Y51553D01*
X24109Y51565D01*
X24111Y51578D01*
X24115Y51590D01*
X24119Y51603D01*
X24124Y51615D01*
X24128Y51627D01*
X24677Y52952D01*
X24683Y52964D01*
X24688Y52976D01*
X24694Y52987D01*
X24700Y52999D01*
X24707Y53009D01*
X24713Y53021D01*
X25511Y54214D01*
X25518Y54224D01*
X25526Y54235D01*
X25534Y54244D01*
X25542Y54255D01*
X25551Y54264D01*
X25560Y54273D01*
X26574Y55288D01*
X26584Y55296D01*
X26593Y55305D01*
X26603Y55313D01*
X26613Y55322D01*
X26624Y55329D01*
X26634Y55337D01*
X27827Y56134D01*
X27838Y56141D01*
X27849Y56148D01*
X27860Y56153D01*
X27872Y56160D01*
X27883Y56165D01*
X27895Y56170D01*
X29221Y56720D01*
X29233Y56724D01*
X29245Y56729D01*
X29257Y56732D01*
X29269Y56736D01*
X29282Y56739D01*
X29295Y56742D01*
X30702Y57022D01*
X30715Y57024D01*
X30727Y57026D01*
X30740Y57027D01*
X30753Y57029D01*
X30766D01*
X30779Y57029D01*
X32213D01*
X32226Y57029D01*
D02*
G37*
G36*
X130283Y14764D02*
X130296D01*
X130309Y14762D01*
X130322Y14761D01*
X130334Y14759D01*
X130347Y14757D01*
X131032Y14621D01*
X131044Y14617D01*
X131057Y14615D01*
X131069Y14611D01*
X131082Y14607D01*
X131094Y14603D01*
X131106Y14598D01*
X131751Y14331D01*
X131762Y14326D01*
X131774Y14321D01*
X131785Y14314D01*
X131797Y14309D01*
X131808Y14301D01*
X131819Y14295D01*
X132399Y13907D01*
X132409Y13899D01*
X132420Y13892D01*
X132430Y13883D01*
X132440Y13876D01*
X132449Y13867D01*
X132459Y13858D01*
X132952Y13364D01*
X132961Y13355D01*
X132970Y13346D01*
X132978Y13335D01*
X132986Y13326D01*
X132994Y13315D01*
X133002Y13305D01*
X133389Y12724D01*
X133396Y12713D01*
X133403Y12702D01*
X133409Y12691D01*
X133415Y12680D01*
X133420Y12668D01*
X133426Y12656D01*
X133693Y12011D01*
X133697Y11999D01*
X133702Y11987D01*
X133705Y11975D01*
X133710Y11962D01*
X133712Y11950D01*
X133715Y11937D01*
X133852Y11253D01*
X133853Y11240D01*
X133856Y11227D01*
X133857Y11214D01*
X133858Y11202D01*
Y11189D01*
X133859Y11176D01*
Y10827D01*
Y10478D01*
X133858Y10465D01*
Y10452D01*
X133857Y10439D01*
X133856Y10426D01*
X133853Y10414D01*
X133852Y10401D01*
X133715Y9716D01*
X133712Y9704D01*
X133710Y9691D01*
X133705Y9679D01*
X133702Y9666D01*
X133697Y9655D01*
X133693Y9642D01*
X133426Y8997D01*
X133420Y8986D01*
X133415Y8974D01*
X133409Y8963D01*
X133403Y8951D01*
X133396Y8940D01*
X133389Y8929D01*
X133002Y8349D01*
X132994Y8339D01*
X132986Y8328D01*
X132978Y8318D01*
X132970Y8308D01*
X132961Y8299D01*
X132952Y8289D01*
X132459Y7796D01*
X132449Y7787D01*
X132440Y7778D01*
X132430Y7770D01*
X132420Y7762D01*
X132409Y7754D01*
X132399Y7746D01*
X131819Y7359D01*
X131808Y7352D01*
X131797Y7345D01*
X131785Y7339D01*
X131774Y7333D01*
X131762Y7328D01*
X131751Y7322D01*
X131106Y7055D01*
X131094Y7051D01*
X131082Y7046D01*
X131069Y7043D01*
X131057Y7039D01*
X131044Y7036D01*
X131032Y7033D01*
X130347Y6897D01*
X130334Y6895D01*
X130322Y6892D01*
X130309Y6892D01*
X130296Y6890D01*
X130283D01*
X130270Y6889D01*
X129572D01*
X129559Y6890D01*
X129546D01*
X129534Y6892D01*
X129521Y6892D01*
X129508Y6895D01*
X129495Y6897D01*
X128811Y7033D01*
X128798Y7036D01*
X128786Y7039D01*
X128773Y7043D01*
X128761Y7046D01*
X128749Y7051D01*
X128737Y7055D01*
X128092Y7322D01*
X128080Y7328D01*
X128068Y7333D01*
X128057Y7339D01*
X128046Y7345D01*
X128035Y7352D01*
X128024Y7359D01*
X127443Y7746D01*
X127433Y7754D01*
X127422Y7762D01*
X127413Y7770D01*
X127402Y7778D01*
X127393Y7787D01*
X127383Y7796D01*
X126890Y8289D01*
X126882Y8299D01*
X126872Y8308D01*
X126865Y8318D01*
X126856Y8328D01*
X126849Y8339D01*
X126841Y8349D01*
X126453Y8929D01*
X126447Y8940D01*
X126439Y8951D01*
X126434Y8963D01*
X126427Y8974D01*
X126422Y8986D01*
X126417Y8997D01*
X126150Y9642D01*
X126146Y9655D01*
X126140Y9666D01*
X126137Y9679D01*
X126133Y9691D01*
X126130Y9704D01*
X126127Y9716D01*
X125991Y10401D01*
X125989Y10414D01*
X125987Y10426D01*
X125986Y10439D01*
X125984Y10452D01*
Y10465D01*
X125983Y10478D01*
Y10827D01*
Y11176D01*
X125984Y11189D01*
Y11202D01*
X125986Y11214D01*
X125987Y11227D01*
X125989Y11240D01*
X125991Y11253D01*
X126127Y11937D01*
X126130Y11950D01*
X126133Y11962D01*
X126137Y11975D01*
X126140Y11987D01*
X126146Y11999D01*
X126150Y12011D01*
X126417Y12656D01*
X126422Y12668D01*
X126427Y12680D01*
X126434Y12691D01*
X126439Y12702D01*
X126447Y12713D01*
X126453Y12724D01*
X126841Y13305D01*
X126849Y13315D01*
X126856Y13326D01*
X126865Y13335D01*
X126872Y13346D01*
X126882Y13355D01*
X126890Y13364D01*
X127383Y13858D01*
X127393Y13867D01*
X127402Y13876D01*
X127413Y13883D01*
X127422Y13892D01*
X127433Y13899D01*
X127443Y13907D01*
X128024Y14295D01*
X128035Y14301D01*
X128046Y14309D01*
X128057Y14314D01*
X128068Y14321D01*
X128080Y14326D01*
X128092Y14331D01*
X128737Y14598D01*
X128749Y14603D01*
X128761Y14607D01*
X128773Y14611D01*
X128786Y14615D01*
X128798Y14617D01*
X128811Y14621D01*
X129495Y14757D01*
X129508Y14759D01*
X129521Y14761D01*
X129534Y14762D01*
X129546Y14764D01*
X129559D01*
X129572Y14765D01*
X130270D01*
X130283Y14764D01*
D02*
G37*
G36*
X110967Y57029D02*
X110979D01*
X110992Y57027D01*
X111005Y57026D01*
X111018Y57024D01*
X111030Y57022D01*
X112438Y56742D01*
X112450Y56739D01*
X112463Y56736D01*
X112475Y56732D01*
X112487Y56729D01*
X112499Y56724D01*
X112512Y56720D01*
X113837Y56170D01*
X113849Y56165D01*
X113861Y56160D01*
X113872Y56153D01*
X113883Y56148D01*
X113894Y56141D01*
X113905Y56134D01*
X115098Y55337D01*
X115109Y55329D01*
X115119Y55322D01*
X115129Y55313D01*
X115139Y55305D01*
X115148Y55296D01*
X115158Y55288D01*
X116173Y54273D01*
X116181Y54264D01*
X116190Y54255D01*
X116198Y54244D01*
X116207Y54235D01*
X116214Y54224D01*
X116222Y54214D01*
X117019Y53021D01*
X117025Y53009D01*
X117032Y52999D01*
X117038Y52987D01*
X117045Y52976D01*
X117050Y52964D01*
X117055Y52952D01*
X117604Y51627D01*
X117608Y51615D01*
X117613Y51603D01*
X117617Y51590D01*
X117621Y51578D01*
X117623Y51565D01*
X117627Y51553D01*
X117907Y50146D01*
X117908Y50133D01*
X117911Y50120D01*
X117912Y50107D01*
X117913Y50095D01*
Y50082D01*
X117914Y50069D01*
Y49352D01*
Y48634D01*
X117913Y48621D01*
Y48608D01*
X117912Y48595D01*
X117911Y48583D01*
X117908Y48570D01*
X117907Y48557D01*
X117627Y47150D01*
X117623Y47137D01*
X117621Y47125D01*
X117617Y47113D01*
X117613Y47100D01*
X117608Y47088D01*
X117604Y47076D01*
X117055Y45750D01*
X117050Y45739D01*
X117045Y45727D01*
X117038Y45716D01*
X117032Y45704D01*
X117025Y45693D01*
X117019Y45682D01*
X116222Y44489D01*
X116214Y44479D01*
X116207Y44468D01*
X116198Y44459D01*
X116190Y44448D01*
X116181Y44439D01*
X116173Y44430D01*
X115158Y43415D01*
X115148Y43407D01*
X115139Y43397D01*
X115129Y43389D01*
X115119Y43381D01*
X115109Y43374D01*
X115098Y43366D01*
X113905Y42569D01*
X113894Y42562D01*
X113883Y42555D01*
X113872Y42550D01*
X113861Y42543D01*
X113849Y42538D01*
X113837Y42533D01*
X112512Y41983D01*
X112499Y41979D01*
X112487Y41974D01*
X112475Y41971D01*
X112463Y41967D01*
X112450Y41964D01*
X112438Y41961D01*
X111030Y41681D01*
X111018Y41679D01*
X111005Y41677D01*
X110992Y41676D01*
X110979Y41674D01*
X110967D01*
X110954Y41673D01*
X109519D01*
X109506Y41674D01*
X109493D01*
X109480Y41676D01*
X109467Y41677D01*
X109455Y41679D01*
X109442Y41681D01*
X108035Y41961D01*
X108022Y41964D01*
X108010Y41967D01*
X107997Y41971D01*
X107985Y41974D01*
X107973Y41979D01*
X107961Y41983D01*
X106635Y42533D01*
X106624Y42538D01*
X106612Y42543D01*
X106600Y42549D01*
X106589Y42555D01*
X106578Y42562D01*
X106567Y42569D01*
X105374Y43366D01*
X105364Y43374D01*
X105353Y43381D01*
X105343Y43389D01*
X105333Y43397D01*
X105324Y43407D01*
X105314Y43415D01*
X104300Y44430D01*
X104291Y44439D01*
X104282Y44448D01*
X104274Y44459D01*
X104266Y44468D01*
X104259Y44479D01*
X104251Y44489D01*
X103454Y45682D01*
X103447Y45693D01*
X103440Y45704D01*
X103434Y45716D01*
X103428Y45727D01*
X103423Y45739D01*
X103417Y45750D01*
X102868Y47076D01*
X102864Y47088D01*
X102859Y47100D01*
X102856Y47113D01*
X102851Y47125D01*
X102849Y47137D01*
X102846Y47150D01*
X102566Y48557D01*
X102564Y48570D01*
X102562Y48583D01*
X102561Y48595D01*
X102559Y48608D01*
Y48621D01*
X102558Y48634D01*
Y49352D01*
Y50069D01*
X102559Y50082D01*
Y50095D01*
X102561Y50107D01*
X102562Y50120D01*
X102564Y50133D01*
X102566Y50146D01*
X102846Y51553D01*
X102849Y51565D01*
X102851Y51578D01*
X102856Y51590D01*
X102859Y51603D01*
X102864Y51615D01*
X102868Y51627D01*
X103417Y52952D01*
X103423Y52964D01*
X103428Y52976D01*
X103434Y52987D01*
X103440Y52999D01*
X103447Y53009D01*
X103454Y53021D01*
X104251Y54214D01*
X104259Y54224D01*
X104266Y54235D01*
X104274Y54244D01*
X104282Y54255D01*
X104291Y54264D01*
X104300Y54273D01*
X105314Y55288D01*
X105324Y55296D01*
X105333Y55305D01*
X105343Y55313D01*
X105353Y55322D01*
X105364Y55329D01*
X105374Y55337D01*
X106567Y56134D01*
X106578Y56141D01*
X106589Y56148D01*
X106600Y56153D01*
X106612Y56160D01*
X106624Y56165D01*
X106635Y56170D01*
X107961Y56720D01*
X107973Y56724D01*
X107985Y56729D01*
X107997Y56732D01*
X108010Y56736D01*
X108022Y56739D01*
X108035Y56742D01*
X109442Y57022D01*
X109455Y57024D01*
X109467Y57026D01*
X109480Y57027D01*
X109493Y57029D01*
X109506D01*
X109519Y57029D01*
X110954D01*
X110967Y57029D01*
D02*
G37*
D11*
X146653Y4921D02*
D03*
X5906Y62992D02*
D03*
D12*
X158465Y29528D02*
D03*
Y61024D02*
D03*
D13*
X96014Y62008D02*
D03*
D14*
X158465Y41339D02*
D03*
Y49213D02*
D03*
D15*
X53858Y62854D02*
D03*
X87874D02*
D03*
D16*
X53858Y46398D02*
D03*
X87874D02*
D03*
D17*
X59488Y48366D02*
D03*
X82244D02*
D03*
M02*
