M48
;Layer_Color=9474304
;FILE_FORMAT=2:4
INCH,TZ
;TYPE=PLATED
T01F00S00C0.0118
T02F00S00C0.0183
T03F00S00C0.0197
T05F00S00C0.0368
;TYPE=NON_PLATED
T06F00S00C0.0256
T07F00S00C0.0454
%
T01
X3937Y1181
X5512
X7087
X7922Y1138
X8661Y1181
X10088Y1138
X10875
X11811Y1181
X12795Y2657
X11909Y3740
X14173Y3543
Y5610
X12598Y5906
X9547Y4921
X8346Y4035
X8031
X6791Y4004
X6142Y4035
X5827
X7185Y4823
X7874Y5906
X6299
X4724
Y2756
X6791Y2756
X8858Y2953
X10236
X3150Y2756
X1575
X787Y4331
X1575Y5906
X787Y1181
X2362
T02
X15846Y4134
Y4921
T03
X7142Y1847
T05
X9601Y6201
X15846Y6102
Y2953
T06
X5949Y4837
X8224
T07
X14665Y492
X591Y6299
M30
